<?xml version="1.0" encoding="utf-8"?>
<!-- Generator: Adobe Illustrator 21.1.0, SVG Export Plug-In . SVG Version: 6.00 Build 0)  -->
<svg version="1.1" id="Calque_1" xmlns="http://www.w3.org/2000/svg" xmlns:xlink="http://www.w3.org/1999/xlink" x="0px" y="0px"
	viewBox="0 0 432 432" style="enable-background:new 0 0 432 432;" xml:space="preserve">
<style type="text/css">
	.st0{fill:#905269;}
	.st1{fill:#5B473E;}
	.st2{fill:#EE8081;}
	.st3{fill:#455063;}
	.st4{fill:#A5998D;}
	.st5{fill:#B94E46;}
	.st6{fill:#8D7867;}
	.st7{fill:#E4C08C;}
	.st8{fill:#BEC1A4;}
	.st9{fill:#B3AEA8;}
	.st10{fill:#F39DA0;}
	.st11{fill:#1A1A1A;}
	.st12{fill:#F7C7C5;}
	.st13{fill:#997BA1;}
	.st14{fill:#658367;}
	.st15{fill:#EA7563;}
	.st16{fill:#3BBACB;}
	.st17{fill:#F98600;}
	.st18{fill:#F5CD00;}
	.st19{fill:#CCCCCC;}
	.st20{fill:#449BC4;}
	.st21{fill:#C69C6D;}
	.st22{fill:#B7C8A4;}
	.st23{fill:#333333;}
	.st24{fill:#B6DB00;}
	.st25{fill:#C10810;}
	.st26{fill:#B98D4D;}
	.st27{fill:#D6A8B2;}
	.st28{fill:#F3532F;}
	.st29{fill:#0071BC;}
	.st30{fill:#006837;}
	.st31{fill:#F1E06C;}
	.st32{fill:#FFB07F;}
	.st33{fill:#B26E6E;}
	.st34{fill:#89A57D;}
	.st35{fill:#E4B1B1;}
	.st36{fill:#A35061;}
	.st37{fill:#677763;}
	.st38{fill:#DFAFB4;}
	.st39{fill:#6D2E2E;}
	.st40{fill:#D79191;}
	.st41{fill:#A51A1A;}
	.st42{fill:#E16F6F;}
	.st43{fill:#ECA3A3;}
	.st44{fill:#A99FC8;}
	.st45{fill:#F4CDA1;}
	.st46{fill:#F28460;}
	.st47{fill:#666666;}
	.st48{fill:#FE6467;}
	.st49{fill:#FBB03B;}
	.st50{fill:#5E417B;}
	.st51{fill:#8EA73D;}
	.st52{fill:#A677B5;}
	.st53{fill:#D397D5;}
	.st54{fill:#8FBA72;}
	.st55{fill:#525541;}
	.st56{fill:#FEB8BD;}
	.st57{fill:#B86B8B;}
	.st58{fill:#4EA8D0;}
	.st59{fill:#A7343B;}
	.st60{fill:#F3A61D;}
	.st61{fill:#BD607F;}
	.st62{fill:#678A6C;}
	.st63{fill:#5B2642;}
	.st64{fill:#A5A184;}
	.st65{fill:#BF8F56;}
	.st66{fill:#2C2B27;}
	.st67{fill:#3C3C3B;}
	.st68{fill:#E7AE61;}
	.st69{fill:#A3897A;}
	.st70{fill:#F1B4B4;}
	.st71{fill:#DEE1DA;}
	.st72{fill:#8BAA67;}
	.st73{fill:#634E42;}
	.st74{fill:#EF810D;}
	.st75{fill:#493D38;}
	.st76{fill:#DEBA88;}
	.st77{fill:#697279;}
	.st78{fill:#5A6054;}
	.st79{fill:#E6421C;}
	.st80{fill:#DCBA6E;}
	.st81{fill:#EB608A;}
	.st82{fill:#D8BFAC;}
	.st83{fill:#507B64;}
	.st84{fill:#7A6A58;}
	.st85{fill:#BD1622;}
	.st86{fill:#B18EAC;}
	.st87{fill:#82A091;}
	.st88{fill:#422813;}
	.st89{fill:#B17F49;}
	.st90{fill:#E68A9C;}
	.st91{fill:#1D1D1B;}
	.st92{fill:#E7A460;}
	.st93{fill:#6A7C5D;}
	.st94{fill:#B23032;}
	.st95{fill:#5E7C4A;}
	.st96{fill:#65052B;}
	.st97{fill:#C42A52;}
	.st98{fill:#390200;}
	.st99{fill:#A1A395;}
	.st100{fill:#ADA667;}
	.st101{fill:#886766;}
	.st102{fill:#96977D;}
	.st103{fill:#607254;}
	.st104{fill:#925673;}
	.st105{fill:#D86E63;}
	.st106{fill:#A2BC70;}
	.st107{fill:#E37A17;}
	.st108{fill:#778A15;}
	.st109{fill:#BE013B;}
	.st110{fill:#CAACC4;}
	.st111{fill:#874D80;}
	.st112{fill:#E7E2DE;}
	.st113{fill:#748565;}
	.st114{fill:#736357;}
	.st115{fill:#8E9091;}
	.st116{fill:#6A665F;}
	.st117{fill:#315C2B;}
	.st118{fill:#606060;}
	.st119{fill:#EBBFC0;}
	.st120{fill:#B297CA;}
	.st121{fill:#DCC6D6;}
	.st122{fill:#420909;}
	.st123{fill:#E2A759;}
	.st124{fill:#DD7576;}
	.st125{fill:#B23838;}
	.st126{fill:#CC9A6D;}
	.st127{fill:#7F454F;}
</style>
<g>
	<g>
		<g>
			<path class="st117" d="M161.7,133.1c0.4,0.1,0.7,0.1,1,0c0.3-0.1,0.5-0.2,0.7-0.5c0,0,0.1-0.1,0.1-0.1c0,0,0.1-0.1,0.1-0.1
				c0.1-0.1,0.2-0.1,0.3,0c0.1,0.1,0.1,0.2,0.1,0.3c-0.1,0.2-0.2,0.4-0.2,0.5c-0.3,0.5-0.6,0.8-1,0.9c-0.4,0.2-0.9,0.3-1.4,0.3
				c-0.3,0-0.5,0-0.8,0c-0.3,0-0.5-0.1-0.8-0.1c-0.2,0-0.4-0.1-0.6-0.1c-0.2,0-0.4-0.1-0.6-0.1c-0.8-0.2-1.6-0.1-2.4,0.3
				c-0.1,0-0.2,0.1-0.3,0.2c-0.1,0.1-0.2,0-0.3-0.1c-0.1-0.1-0.1-0.2,0-0.3c0.1-0.1,0.1-0.2,0.2-0.3c0.2-0.3,0.4-0.5,0.7-0.6
				c0.3-0.1,0.6-0.2,0.9-0.2c0-0.1,0-0.2,0-0.4c0-0.1,0-0.2,0-0.4c0-2.6,0.1-5.3,0.1-7.9c0-2.6,0-5.2,0.1-7.9c0-0.6,0-1.2,0-1.9
				c0-0.6,0-1.3,0-1.9c0-0.2,0-0.3,0-0.5c0-0.2,0-0.3,0-0.5c0-0.4-0.2-0.7-0.5-0.9c-0.1-0.1-0.2-0.2-0.3-0.2
				c-0.3-0.3-0.2-0.5,0.1-0.6c0.1-0.1,0.3-0.1,0.4-0.1h4c0.3,0,0.6,0,0.8,0.1c0.1,0,0.1,0.1,0.2,0.2c0.1,0.1,0.1,0.2,0.1,0.2
				c0,0.1,0,0.1-0.1,0.2c-0.1,0.1-0.1,0.1-0.2,0.2c-0.3,0.1-0.4,0.3-0.5,0.4c-0.1,0.2-0.1,0.4-0.1,0.6c0,0.5,0,0.9,0,1.3
				c0,0.4,0,0.9,0,1.3c0,2.9,0,5.8-0.1,8.6c0,2.8,0,5.7-0.1,8.6V133.1z"/>
			<path class="st117" d="M174.9,132.8c0.7,0.3,1.2,0.2,1.7-0.3c0.1-0.1,0.2-0.2,0.2-0.2c0.2,0,0.3,0,0.4,0c0.1,0,0.1,0.1,0.1,0.3
				c-0.1,0.4-0.3,0.8-0.7,1c-0.4,0.3-0.8,0.5-1.2,0.6c-0.4,0.1-0.9,0.1-1.3,0.1c-0.4,0-0.8-0.1-1.2-0.2c-0.4-0.1-0.8-0.1-1.2-0.2
				c-0.3,0-0.5-0.1-0.7-0.1c-0.2,0-0.5,0-0.7,0.1c-0.2,0-0.3,0.1-0.5,0.2c-0.1,0.1-0.3,0.2-0.5,0.3c-0.1,0-0.1,0.1-0.2,0.1
				c-0.1,0-0.2,0-0.3,0c-0.1-0.1-0.2-0.1-0.1-0.2c0-0.1,0.1-0.2,0.1-0.3c0.1-0.2,0.2-0.4,0.3-0.5c0.1-0.2,0.3-0.3,0.5-0.4
				c0.2-0.1,0.4-0.2,0.6-0.3c0.2-0.1,0.4-0.2,0.7-0.3c0-0.1,0-0.3,0-0.4c0-0.2,0-0.3,0-0.5c0-1.9,0-3.7,0.1-5.6c0-1.9,0-3.7,0.1-5.6
				c0-1.2,0-2.4,0-3.6c0-1.2,0-2.4,0-3.6c0-0.2,0-0.4,0-0.6c0-0.2,0-0.4-0.1-0.6c0-0.2-0.2-0.3-0.3-0.3c-0.4,0-0.8,0-1.1,0.1
				c-0.4,0-0.7,0.1-1.1,0.1c-0.5,0.1-0.8,0.3-1.1,0.8l-0.5,1c-0.1,0.2-0.2,0.3-0.3,0.4c-0.1,0.2-0.3,0.2-0.5,0.2
				c-0.2,0-0.3-0.2-0.3-0.4c0-1.1,0-2.2,0.1-3.4c0-0.2,0.1-0.3,0.2-0.3c0.1-0.1,0.2-0.1,0.4-0.1c0.3,0,0.6-0.1,0.9-0.1
				c0.3,0,0.6-0.1,0.9-0.1c0.5,0,1,0,1.5,0c0.5,0,1,0,1.5,0.1c0.8,0,1.7,0,2.5,0c0.8,0,1.6,0,2.5-0.1c1.2,0,2.4,0,3.6,0.2
				c0.3,0,0.5,0.1,0.7,0.3c0.1,0.1,0.2,0.4,0.3,0.7c0.1,0.4,0.1,0.8,0,1.1c-0.1,0.4-0.1,0.7-0.2,1.1c0,0.3-0.2,0.4-0.4,0.4
				c-0.3,0-0.4-0.1-0.5-0.4l-0.2-0.7c-0.2-0.7-0.6-1-1.3-1.1c-0.4,0-0.8-0.1-1.2-0.1c-0.4,0-0.8,0-1.2,0c-0.2,0-0.4,0.1-0.5,0.2
				c-0.1,0.1-0.1,0.2-0.2,0.5c-0.1,0.3-0.1,0.7-0.1,1.1c-0.1,1.7-0.2,3.3-0.2,5c0,1.7,0,3.3,0,5c0,1.5,0,3,0.1,4.5
				c0,1.5,0,3,0.1,4.5C174.9,132.6,174.9,132.7,174.9,132.8z"/>
			<path class="st117" d="M184.9,109.8c0.1,0,0.2,0,0.4,0s0.2,0,0.4,0c0.6,0.2,0.8,0.7,0.6,1.5c0,0.1-0.1,0.2-0.1,0.3
				c0,0.1-0.1,0.2-0.1,0.3c-0.3,0.6-0.6,1.2-0.9,1.8c-0.3,0.6-0.6,1.2-0.9,1.8c-0.2,0.5-0.5,0.7-0.9,0.8c-0.4,0.1-0.7-0.1-1-0.4
				c-0.2-0.2-0.2-0.5-0.2-0.8c0-0.3,0-0.6,0-0.9c0-0.3,0.1-0.6,0.1-0.9c0.1-0.4,0.1-0.9,0.2-1.3c0.1-0.4,0.2-0.8,0.3-1.3
				c0.2-0.6,0.5-1,1-1.1c0.1,0,0.2,0,0.3,0c0.1,0,0.2,0,0.3,0C184.5,109.7,184.7,109.8,184.9,109.8z"/>
			<path class="st117" d="M199.6,128.9c0,1.4-0.4,2.7-1.3,3.6c-0.9,1-2.1,1.6-3.6,1.8c-0.5,0.1-1,0.1-1.4,0.1c-0.5,0-1-0.1-1.4-0.1
				c-0.5-0.1-1.1-0.3-1.6-0.6c-0.5-0.3-1-0.8-1.4-1.3c-0.4-0.5-0.7-1.1-0.8-1.8c-0.2-0.7-0.2-1.4-0.1-2.1c0.1-0.8,0.4-1.5,0.9-2.1
				c0.4-0.5,0.9-0.8,1.5-0.8c0.6-0.1,1.2,0.1,1.7,0.4c0.5,0.4,0.7,0.9,0.7,1.5c0,0.1-0.1,0.1-0.1,0.2c0,0.1-0.1,0.2-0.1,0.2
				c-0.1,0.1-0.2,0.1-0.4,0.1c-0.1,0-0.2-0.2-0.2-0.3c0-0.3-0.1-0.7-0.3-0.9c-0.3-0.5-0.7-0.6-1.2-0.3c-0.3,0.2-0.5,0.5-0.7,0.8
				c-0.2,0.5-0.3,1-0.3,1.5c0,0.5,0.1,1.1,0.3,1.5c0.2,0.5,0.5,0.9,0.8,1.4c0.3,0.4,0.7,0.7,1.2,1c0.4,0.2,0.9,0.3,1.3,0.4
				c0.5,0,0.9-0.1,1.4-0.2c0.8-0.3,1.2-0.8,1.4-1.5c0.3-1.2,0.2-2.3-0.4-3.4c-0.6-1-1.3-2.1-2-3.1c-0.5-0.7-1.1-1.4-1.7-2.1
				c-0.6-0.7-1.2-1.4-1.8-2.1c-0.3-0.4-0.7-0.9-0.9-1.3c-0.3-0.5-0.5-1-0.7-1.5c-0.8-2.2-0.4-4.3,0.9-6.2c0.8-1.2,2-1.8,3.4-1.7
				c0.6,0,1.1,0.2,1.6,0.4c0.5,0.3,0.9,0.6,1.3,1c0.3,0.3,0.5,0.4,0.6,0.4c0.1,0,0.3-0.2,0.4-0.6c0.1-0.1,0.1-0.3,0.2-0.4
				c0.1-0.1,0.1-0.3,0.2-0.4c0.2-0.2,0.4-0.3,0.7-0.3c0.3,0.1,0.5,0.3,0.5,0.5c0,0.1,0.1,0.2,0.1,0.4s0,0.2,0,0.4
				c0,0.5-0.1,1.1-0.1,1.6c0,0.5-0.1,1.1-0.1,1.6c0,0.2-0.1,0.4-0.1,0.5c0,0.2-0.1,0.3-0.2,0.5c-0.1,0.3-0.3,0.5-0.6,0.5
				c-0.3,0-0.5-0.1-0.8-0.3c-0.3-0.3-0.4-0.6-0.6-1c-0.2-0.3-0.3-0.7-0.4-1c-0.1-0.4-0.3-0.7-0.4-1c-0.1-0.2-0.2-0.4-0.4-0.6
				c-0.1-0.2-0.3-0.4-0.4-0.5c-0.1-0.2-0.3-0.3-0.5-0.4c-0.2-0.1-0.4-0.2-0.6-0.2c-0.4-0.1-0.8,0-1.1,0.2c-0.3,0.2-0.5,0.5-0.6,0.9
				c-0.4,1.4-0.3,2.8,0.4,4.2c0.2,0.3,0.4,0.7,0.6,1c0.2,0.3,0.4,0.6,0.7,1c0.5,0.7,1.1,1.4,1.6,2.1s1.1,1.4,1.6,2
				c0.4,0.5,0.8,1.1,1.2,1.7c0.4,0.6,0.7,1.2,1.1,1.8c0.3,0.5,0.5,1,0.6,1.5C199.5,127.8,199.6,128.3,199.6,128.9z"/>
		</g>
		<g>
			<g>
				<path class="st117" d="M130.3,166.7c0.7,0.3,1.2,0.2,1.7-0.3c0.1-0.1,0.2-0.2,0.2-0.2c0.2,0,0.3,0,0.4,0c0.1,0,0.1,0.1,0.1,0.3
					c-0.1,0.4-0.3,0.8-0.7,1c-0.4,0.3-0.8,0.5-1.2,0.6c-0.4,0.1-0.9,0.1-1.3,0.1c-0.4,0-0.8-0.1-1.2-0.2c-0.4-0.1-0.8-0.1-1.2-0.2
					c-0.3,0-0.5-0.1-0.7-0.1c-0.2,0-0.5,0-0.7,0.1c-0.2,0-0.3,0.1-0.5,0.2c-0.1,0.1-0.3,0.2-0.5,0.3c-0.1,0-0.1,0.1-0.2,0.1
					c-0.1,0-0.2,0-0.3,0c-0.1-0.1-0.2-0.1-0.1-0.2c0-0.1,0.1-0.2,0.1-0.3c0.1-0.2,0.2-0.4,0.3-0.5c0.1-0.2,0.3-0.3,0.5-0.4
					c0.2-0.1,0.4-0.2,0.6-0.3c0.2-0.1,0.4-0.2,0.7-0.3c0-0.1,0-0.3,0-0.4c0-0.2,0-0.3,0-0.5c0-1.9,0-3.7,0.1-5.6
					c0-1.9,0-3.7,0.1-5.6c0-1.2,0-2.4,0-3.6c0-1.2,0-2.4,0-3.6c0-0.2,0-0.4,0-0.6c0-0.2,0-0.4-0.1-0.6c0-0.2-0.2-0.3-0.3-0.3
					c-0.4,0-0.8,0-1.1,0.1c-0.4,0-0.7,0.1-1.1,0.1c-0.5,0.1-0.8,0.3-1.1,0.8l-0.5,1c-0.1,0.2-0.2,0.3-0.3,0.4
					c-0.1,0.2-0.3,0.2-0.5,0.2c-0.2,0-0.3-0.2-0.3-0.4c0-1.1,0-2.2,0.1-3.4c0-0.2,0.1-0.3,0.2-0.3c0.1-0.1,0.2-0.1,0.4-0.1
					c0.3,0,0.6-0.1,0.9-0.1c0.3,0,0.6-0.1,0.9-0.1c0.5,0,1,0,1.5,0c0.5,0,1,0,1.5,0.1c0.8,0,1.7,0,2.5,0c0.8,0,1.6,0,2.5-0.1
					c1.2,0,2.4,0,3.6,0.2c0.3,0,0.5,0.1,0.7,0.3c0.1,0.1,0.2,0.4,0.3,0.7c0.1,0.4,0.1,0.8,0,1.1c-0.1,0.4-0.1,0.7-0.2,1.1
					c0,0.3-0.2,0.4-0.4,0.4c-0.3,0-0.4-0.1-0.5-0.4l-0.2-0.7c-0.2-0.7-0.6-1-1.3-1.1c-0.4,0-0.8-0.1-1.2-0.1c-0.4,0-0.8,0-1.2,0
					c-0.2,0-0.4,0.1-0.5,0.2c-0.1,0.1-0.1,0.2-0.2,0.5c-0.1,0.3-0.1,0.7-0.1,1.1c-0.1,1.7-0.2,3.3-0.2,5c0,1.7,0,3.3,0,5
					c0,1.5,0,3,0.1,4.5c0,1.5,0,3,0.1,4.5C130.3,166.4,130.3,166.6,130.3,166.7z"/>
				<path class="st117" d="M143.7,167c0.4,0.1,0.7,0.1,1,0c0.3-0.1,0.5-0.2,0.7-0.5c0,0,0.1-0.1,0.1-0.1c0,0,0.1-0.1,0.1-0.1
					c0.1-0.1,0.2-0.1,0.3,0c0.1,0.1,0.1,0.2,0.1,0.3c-0.1,0.2-0.2,0.4-0.2,0.5c-0.3,0.5-0.6,0.8-1,0.9c-0.4,0.2-0.9,0.3-1.4,0.3
					c-0.3,0-0.5,0-0.8,0c-0.3,0-0.5-0.1-0.8-0.1c-0.2,0-0.4-0.1-0.6-0.1c-0.2,0-0.4-0.1-0.6-0.1c-0.8-0.2-1.6-0.1-2.4,0.3
					c-0.1,0-0.2,0.1-0.3,0.2c-0.1,0.1-0.2,0-0.3-0.1c-0.1-0.1-0.1-0.2,0-0.3c0.1-0.1,0.1-0.2,0.2-0.3c0.2-0.3,0.4-0.5,0.7-0.6
					c0.3-0.1,0.6-0.2,0.9-0.2c0-0.1,0-0.2,0-0.4c0-0.1,0-0.2,0-0.4c0-2.6,0.1-5.3,0.1-7.9c0-2.6,0-5.2,0.1-7.9c0-0.6,0-1.2,0-1.9
					c0-0.6,0-1.3,0-1.9c0-0.2,0-0.3,0-0.5c0-0.2,0-0.3,0-0.5c0-0.4-0.2-0.7-0.5-0.9c-0.1-0.1-0.2-0.2-0.3-0.2
					c-0.3-0.3-0.2-0.5,0.1-0.6c0.1-0.1,0.3-0.1,0.4-0.1h4c0.3,0,0.6,0,0.8,0.1c0.1,0,0.1,0.1,0.2,0.2c0.1,0.1,0.1,0.2,0.1,0.2
					c0,0.1,0,0.1-0.1,0.2c-0.1,0.1-0.1,0.1-0.2,0.2c-0.3,0.1-0.4,0.3-0.5,0.4c-0.1,0.2-0.1,0.4-0.1,0.6c0,0.5,0,0.9,0,1.3
					c0,0.4,0,0.9,0,1.3c0,2.9,0,5.8-0.1,8.6c0,2.8,0,5.7-0.1,8.6V167z"/>
				<path class="st117" d="M157,154.6c0.2-0.5,0.3-1.1,0.4-1.6c0.1-0.5,0.3-1.1,0.4-1.6c0.3-1.2,0.6-2.3,1-3.5
					c0.3-1.1,0.7-2.3,1-3.5c0.1-0.5,0.4-0.7,0.8-0.7c0.5,0,1,0,1.5,0c0.5,0,1,0,1.5,0c0.1,0,0.2,0,0.3,0.1c0.1,0,0.2,0.1,0.2,0.3
					c0,0.1,0,0.2-0.1,0.3c-0.1,0.1-0.1,0.2-0.2,0.2c-0.3,0.2-0.5,0.4-0.6,0.7c-0.1,0.3-0.2,0.6-0.2,0.9c-0.1,0.8-0.1,1.7-0.1,2.5
					c0,2.6-0.1,5.2-0.1,7.8c0,2.6,0,5.2-0.1,7.8c0,0.4,0,0.8,0,1.3c0,0.4,0,0.9-0.1,1.3c0.3,0.1,0.7,0.2,1,0.2
					c0.3,0,0.6-0.2,0.8-0.4c0.1-0.1,0.1-0.1,0.2-0.2c0.1,0,0.2,0,0.2,0.1c0.1,0.1,0.1,0.2,0.1,0.4c-0.2,0.8-0.7,1.2-1.5,1.2
					c-0.2,0-0.4,0-0.6-0.1c-0.2,0-0.4-0.1-0.6-0.1c-1-0.3-1.9-0.3-2.8,0.2c-0.2,0.1-0.3,0.1-0.4,0c-0.1-0.1-0.1-0.2-0.1-0.4
					c0-0.3,0.2-0.5,0.5-0.8c0.3-0.2,0.6-0.4,0.9-0.4c0.1,0,0.2,0,0.3,0c0.1,0,0.2,0,0.4,0c0.1-2.8,0.1-5.6,0.1-8.4
					c0-2.8-0.1-5.6-0.2-8.4c0,0.1-0.1,0.2-0.1,0.3c0,0.1,0,0.2-0.1,0.3c-0.4,1.7-0.9,3.4-1.3,5.1c-0.4,1.7-0.9,3.4-1.3,5.1
					c-0.1,0.4-0.2,0.7-0.3,1c-0.1,0.2-0.3,0.3-0.4,0.3c-0.2,0-0.3-0.1-0.4-0.3c-0.1-0.1-0.1-0.2-0.2-0.3c0-0.1-0.1-0.2-0.1-0.3
					c-0.3-0.8-0.6-1.7-0.9-2.6c-0.2-0.9-0.5-1.7-0.7-2.6c-0.3-1.1-0.6-2.1-0.9-3.1c-0.3-1-0.6-2.1-0.9-3.1l-0.1-0.1
					c-0.1,3-0.1,5.9-0.2,8.8c-0.1,2.9-0.1,5.9-0.2,8.8c0.1,0.1,0.2,0.1,0.3,0.1c0.1,0,0.2-0.1,0.3-0.2c0.1,0,0.1-0.1,0.2-0.2
					c0.1-0.1,0.1-0.1,0.2-0.2c0.1-0.1,0.1-0.2,0.2-0.3c0.1-0.1,0.2-0.1,0.3-0.1c0.2,0,0.3,0.1,0.3,0.3c0,0.1,0,0.3,0.1,0.4
					c0,0.5-0.2,0.8-0.6,1c-0.3,0.2-0.7,0.3-1.1,0.3c-0.3,0-0.6,0-0.8,0c-0.3,0-0.6,0-0.8-0.1c-0.3,0-0.7,0-1-0.1c-0.3,0-0.7,0-1,0
					c-0.5,0-0.9,0.1-1.2,0.4c-0.2,0.2-0.4,0.3-0.5,0.1c-0.1-0.1-0.1-0.2-0.1-0.4c0-0.3,0.2-0.6,0.4-0.9c0.3-0.3,0.6-0.4,0.9-0.5
					c0.1,0,0.1,0,0.2,0c0.1,0,0.2,0,0.3,0v-0.7v-8.3c0-1.2,0-2.5,0.1-3.7c0-1.2,0-2.4,0-3.7c0-0.7,0-1.4,0-2.1c0-0.7,0-1.4-0.1-2.1
					c0-0.4-0.1-0.7-0.2-1c-0.1-0.3-0.4-0.6-0.8-0.7c-0.1,0-0.2-0.1-0.2-0.2c-0.1-0.1-0.1-0.1-0.1-0.3c0-0.1,0-0.2,0.1-0.2
					c0-0.1,0.2-0.1,0.5-0.1c0.6,0,1.2,0,1.8,0c0.6,0,1.2,0,1.8,0c0.5,0,0.9,0.2,1.1,0.7c0.2,0.5,0.4,0.9,0.5,1.3
					c0.2,0.4,0.3,0.9,0.5,1.3c0.4,1.2,0.8,2.4,1.1,3.5c0.4,1.2,0.7,2.3,1.1,3.5c0,0.1,0.1,0.1,0.1,0.2
					C156.9,154.4,156.9,154.5,157,154.6z"/>
				<path class="st117" d="M172.6,159.4c0,1.2-0.1,2.4-0.1,3.6c0,1.2,0,2.4,0,3.6c0.9,0.2,1.7,0.3,2.6,0.3c0.8,0,1.7-0.1,2.5-0.3
					c0.4-0.1,0.8-0.3,1.1-0.6c0.3-0.3,0.6-0.6,0.8-1c0.1-0.2,0.2-0.4,0.4-0.7c0,0,0.1-0.1,0.2-0.1c0.1,0,0.2,0,0.2,0
					c0.2,0,0.3,0.2,0.3,0.3c0,0.2,0,0.5-0.1,0.8c-0.1,0.5-0.4,0.9-0.7,1.3c-0.3,0.4-0.7,0.6-1.1,0.8c-0.5,0.2-1.1,0.4-1.7,0.5
					c-1,0.2-2.1,0.2-3.1,0.2c-1-0.1-2-0.2-3.1-0.4c-0.3,0-0.6-0.1-0.9-0.1c-0.3,0-0.6,0-0.9-0.1c-0.6,0-1.1,0.1-1.7,0.4
					c-0.1,0.1-0.2,0.1-0.4,0.2c-0.2,0-0.3,0-0.4-0.1c0,0,0-0.1,0-0.1s0-0.1,0-0.2c0.2-0.4,0.5-0.7,0.9-0.9c0.2-0.1,0.3-0.1,0.5-0.2
					c0.1,0,0.3-0.1,0.5-0.1c0-0.6,0-1.2,0.1-1.8c0-0.6,0-1.2,0.1-1.8c0-2.2,0-4.4,0.1-6.7c0-2.2,0-4.4,0.1-6.7c0-0.5,0-1,0-1.5
					c0-0.5,0-1-0.1-1.5c0-0.1,0-0.2,0-0.3c0-0.1,0-0.2-0.1-0.3c-0.1-0.6-0.5-1-1-1.2c-0.2,0-0.4-0.1-0.5-0.2c-0.1,0-0.1-0.1-0.2-0.2
					c-0.1-0.1-0.1-0.2,0-0.3c0-0.1,0.1-0.2,0.1-0.2c0.1,0,0.1-0.1,0.2-0.1c0.1,0,0.3,0,0.5,0l6,0.1h4.7c0.5,0,0.8,0.1,1,0.3
					c0.2,0.2,0.3,0.5,0.4,0.9c0,0.5,0,0.9,0,1.4c0,0.5-0.1,0.9-0.1,1.4c0,0.1,0,0.2,0,0.3c0,0.1,0,0.2-0.1,0.2
					c0,0.1-0.1,0.2-0.2,0.2c-0.1,0.1-0.2,0.1-0.4,0.1c-0.2,0-0.4-0.1-0.5-0.3c0-0.1-0.1-0.2-0.1-0.4c0-0.1,0-0.2-0.1-0.4
					c0-0.2-0.1-0.4-0.1-0.6c0-0.2-0.1-0.4-0.1-0.6c-0.1-0.5-0.4-0.8-0.8-0.9c-0.2,0-0.3-0.1-0.5-0.1c-0.2,0-0.3-0.1-0.5-0.1
					c-0.5,0-0.9,0-1.4,0c-0.4,0-0.9,0-1.4,0c-0.3,0-0.5,0.1-0.6,0.2c-0.1,0.1-0.1,0.3-0.2,0.6l-0.2,11.2v0.7c0.4,0.1,0.7,0.1,1-0.1
					c0.3-0.1,0.6-0.3,0.8-0.5c0.1-0.1,0.2-0.2,0.2-0.3c0.1-0.1,0.1-0.2,0.2-0.2c0.4-0.3,0.6-0.2,0.8,0.2c0.1,0.3,0.1,0.5,0.1,0.7
					c0,0.5-0.1,1.1-0.1,1.6s-0.1,1.1-0.1,1.6c0,0.3-0.1,0.4-0.1,0.5c-0.1,0.1-0.1,0.1-0.2,0.1c0,0-0.1,0-0.2-0.1
					c-0.1,0-0.1-0.1-0.2-0.2c0-0.1-0.1-0.1-0.1-0.2c0-0.1-0.1-0.2-0.1-0.3c-0.1-0.3-0.2-0.5-0.3-0.7c-0.1-0.2-0.2-0.3-0.3-0.5
					c-0.1-0.1-0.3-0.2-0.5-0.2C173.2,159.4,172.9,159.4,172.6,159.4z"/>
			</g>
			<g>
				<path class="st117" d="M198.2,158.2c0.3,0,0.5,0,0.6,0c0.2,0,0.3-0.1,0.5-0.2s0.3-0.2,0.5-0.4c0.2-0.1,0.3-0.2,0.5-0.4
					c0.6-0.4,0.9-0.2,1.1,0.4c0,0.1,0,0.2,0.1,0.3c0,0.1,0,0.2,0,0.3c0,0.5-0.1,1.1-0.1,1.6c0,0.5-0.1,1.1-0.1,1.6
					c0,0.1,0,0.2-0.1,0.3c0,0.1,0,0.2-0.1,0.2c-0.1,0.2-0.2,0.3-0.4,0.3c-0.1,0-0.3-0.1-0.4-0.2c0-0.1-0.1-0.2-0.1-0.3
					c0-0.1-0.1-0.2-0.1-0.3c0-0.1-0.1-0.2-0.1-0.3c0-0.1,0-0.2-0.1-0.3c-0.1-0.5-0.3-0.8-0.6-0.9c-0.3-0.1-0.7-0.2-1.2-0.1
					c0,1.2-0.1,2.3-0.1,3.5c0,1.2-0.1,2.3-0.1,3.5c0.2,0,0.4,0,0.5-0.1c0.1-0.1,0.3-0.2,0.4-0.3c0.1-0.1,0.2-0.1,0.3-0.2
					c0.1-0.1,0.2-0.2,0.3-0.2c0.2-0.1,0.3-0.1,0.4-0.1c0.1,0.1,0.2,0.2,0.2,0.4c0,0.1,0,0.2-0.1,0.4c0,0.1-0.1,0.3-0.2,0.3
					c-0.3,0.3-0.5,0.6-0.9,0.8c-0.3,0.2-0.7,0.3-1.2,0.3c-0.2,0-0.5,0-0.7-0.1c-0.2,0-0.5-0.1-0.7-0.1c-0.6-0.1-1.2-0.1-1.7-0.1
					c-0.6,0-1.1,0.2-1.7,0.4c-0.1,0-0.2,0.1-0.3,0.1c-0.1,0-0.2,0-0.3-0.1c-0.2-0.1-0.2-0.3,0-0.6c0.2-0.2,0.4-0.4,0.5-0.5
					c0.1-0.1,0.3-0.2,0.5-0.3c0.1,0,0.1-0.1,0.2-0.1c0.1,0,0.2,0,0.3-0.1c0-0.5,0-1,0-1.5c0-0.5,0-1,0-1.5c0-2.7,0.1-5.4,0.1-8.1
					c0-2.7,0.1-5.4,0.1-8.1c0-0.3,0-0.6,0-0.9c0-0.3,0-0.6,0-0.9c0-0.5-0.3-1-0.9-1.2c0,0-0.1-0.1-0.3-0.1c-0.1-0.1-0.2-0.2-0.2-0.3
					c0-0.1,0.1-0.2,0.2-0.3c0,0,0.1-0.1,0.2-0.1c0.1,0,0.1,0,0.2,0c0.1,0,0.2,0,0.3-0.1c0.1,0,0.2,0,0.3,0c1.1,0,2.1-0.1,3.2-0.1
					c1.1,0,2.1,0,3.2,0c0.9,0,1.8,0,2.7,0.1c0.9,0.1,1.8,0.1,2.8,0.2c0.6,0,0.9,0.3,0.9,0.9c0,0.5,0,0.9-0.1,1.4
					c0,0.5-0.1,0.9-0.1,1.4c0,0,0,0.1,0,0.1c0,0,0,0.1,0,0.1c-0.1,0.3-0.3,0.5-0.5,0.6c-0.2,0-0.3,0-0.4-0.1
					c-0.1-0.1-0.1-0.2-0.2-0.3c-0.2-0.4-0.3-0.7-0.4-1c-0.1-0.5-0.3-0.8-0.6-1.1c-0.3-0.2-0.7-0.4-1.2-0.5c-0.7-0.1-1.5-0.2-2.2-0.1
					c-0.7,0-1.4,0.1-2.2,0.1c-0.3,0-0.5,0.1-0.6,0.2c-0.1,0.1-0.1,0.3-0.1,0.6c0,0.8,0,1.5,0,2.3c0,0.8,0,1.5,0,2.3
					c0,1.1,0,2.3,0,3.4c0,1.1,0,2.3-0.1,3.4V158.2z"/>
				<path class="st117" d="M208.4,157.1c0-1.6,0.1-3.1,0.3-4.5c0.2-1.4,0.5-2.7,0.9-4c0.2-0.6,0.5-1.2,0.8-1.8
					c0.3-0.6,0.7-1.1,1.2-1.6c0.5-0.5,1-0.9,1.6-1.1c0.6-0.3,1.2-0.4,1.9-0.4c0.9,0,1.7,0.1,2.5,0.3c0.8,0.2,1.5,0.6,2.2,1.2
					c0.4,0.3,0.7,0.7,1,1.2c0.3,0.4,0.5,0.9,0.8,1.3c0.3,0.6,0.5,1.2,0.7,1.9c0.2,0.6,0.3,1.3,0.4,2c0.5,3.5,0.3,7-0.6,10.3
					c-0.1,0.4-0.2,0.8-0.4,1.2c-0.1,0.4-0.3,0.8-0.5,1.2c-0.3,0.6-0.6,1.2-1.1,1.7c-0.4,0.5-0.9,0.9-1.5,1.3
					c-0.5,0.4-1.1,0.6-1.7,0.7c-0.6,0.1-1.3,0.1-1.9,0.1c-1.1-0.1-1.9-0.5-2.7-1.1c-0.7-0.6-1.4-1.3-1.9-2.1
					c-0.5-0.8-0.9-1.6-1.2-2.5c-0.3-0.9-0.4-1.8-0.6-2.8c0-0.5-0.1-1-0.1-1.4C208.5,157.7,208.4,157.4,208.4,157.1z M213.4,157.2
					v2.5c0,0.8,0,1.6,0.1,2.3c0.1,0.8,0.2,1.5,0.5,2.3c0.1,0.3,0.2,0.6,0.3,0.9c0.1,0.3,0.3,0.5,0.4,0.8c0.5,0.8,1.2,1.1,2.2,0.9
					c0.5-0.1,0.9-0.3,1.2-0.5c0.3-0.3,0.6-0.6,0.8-1c0.7-1.1,1.2-2.3,1.5-3.6c0.4-1.6,0.7-3.2,0.8-4.8c0.1-1.6,0.2-3.2,0.1-4.9
					c-0.1-0.7-0.2-1.4-0.4-2.1c-0.2-0.7-0.5-1.4-0.9-2c-0.7-1.1-1.6-1.9-2.8-2.4c-1-0.5-1.8-0.2-2.3,0.8c-0.1,0.2-0.2,0.5-0.3,0.7
					c-0.1,0.2-0.2,0.5-0.2,0.7c-0.1,0.7-0.3,1.5-0.4,2.2c-0.1,0.7-0.2,1.5-0.3,2.2c-0.1,0.9-0.2,1.7-0.2,2.6
					C213.5,155.6,213.5,156.4,213.4,157.2z"/>
				<path class="st117" d="M231.2,160.2c0.5,0.3,1,0.7,1.3,1.2c0.3,0.5,0.5,1,0.7,1.6c0.1,0.3,0.2,0.7,0.3,1c0.1,0.4,0.2,0.7,0.3,1
					c0.1,0.3,0.2,0.6,0.3,0.8c0.2,0.3,0.5,0.4,0.8,0.4c0.3,0,0.6-0.2,0.8-0.5c0-0.1,0.1-0.2,0.1-0.3c0-0.1,0.1-0.2,0.1-0.2
					c0-0.1,0.1-0.1,0.2-0.2c0.1-0.1,0.2-0.1,0.2-0.1c0.1,0,0.1,0.1,0.2,0.1c0.1,0.1,0.1,0.1,0.1,0.2c0,0.2,0,0.4,0,0.6
					c0,0.2,0,0.4-0.1,0.6c-0.2,0.7-0.6,1.2-1.1,1.5c-0.6,0.3-1.2,0.3-1.8,0.1c-0.5-0.2-0.8-0.4-1.2-0.7c-0.3-0.3-0.6-0.7-0.8-1.1
					c-0.1-0.4-0.3-0.7-0.4-1.1c-0.1-0.4-0.2-0.7-0.3-1.1c-0.1-0.3-0.2-0.6-0.3-0.8c-0.1-0.3-0.2-0.6-0.3-0.8
					c-0.2-0.6-0.7-0.9-1.4-0.9v5.6c0.3,0,0.5,0,0.7-0.1c0.2-0.1,0.3-0.3,0.5-0.4c0,0,0.1-0.1,0.1-0.1c0,0,0.1-0.1,0.1-0.1
					c0,0,0.1-0.1,0.2-0.1c0.1,0,0.1,0,0.2,0c0.1,0,0.2,0.1,0.2,0.3c0,0.2,0,0.4-0.1,0.6c-0.2,0.5-0.6,0.9-1,1.2
					c-0.4,0.3-0.9,0.4-1.5,0.3c-0.3,0-0.6-0.1-1-0.2c-0.3-0.1-0.6-0.1-1-0.2c-0.4-0.1-0.8-0.1-1.2-0.1c-0.4,0-0.8,0.2-1.1,0.5
					c-0.2,0.2-0.4,0.2-0.5,0.1c-0.2-0.2-0.2-0.4-0.1-0.6c0.2-0.5,0.5-0.8,1-1c0.1,0,0.2,0,0.4-0.1c0.1,0,0.3,0,0.4-0.1v-1
					c0-2.8-0.1-5.7-0.1-8.4c0-2.8-0.1-5.6-0.1-8.4v-2.3c0-0.7-0.2-1.3-0.7-1.8c-0.3-0.2-0.3-0.4-0.3-0.6c0.1-0.2,0.2-0.3,0.5-0.4
					c0.3-0.1,0.7-0.1,1-0.1c0.5,0,0.9,0,1.4,0c0.5,0,0.9,0,1.4,0c1.6,0,2.9,0.5,4,1.3c1.1,0.8,1.9,1.9,2.5,3.4
					c0.5,1.4,0.7,2.9,0.6,4.3c-0.1,1.4-0.5,2.8-1.1,4.2c-0.6,1.3-1.4,2.2-2.5,2.8c-0.1,0-0.2,0.1-0.3,0.2
					C231.4,160.1,231.3,160.1,231.2,160.2z M228.9,159.6c0.2,0.1,0.3,0.2,0.5,0.1c0.1,0,0.3-0.1,0.5-0.1c0.6-0.3,1.2-0.6,1.7-1
					c0.5-0.4,0.9-0.9,1.2-1.5c0.4-0.6,0.7-1.4,0.9-2.2c0.3-1.1,0.4-2.2,0.4-3.3c0-1.1-0.2-2.2-0.7-3.3c-0.2-0.4-0.4-0.9-0.7-1.3
					c-0.3-0.4-0.6-0.8-0.9-1.1c-0.3-0.3-0.5-0.5-0.8-0.7c-0.3-0.2-0.6-0.3-1-0.3c-0.3-0.1-0.6-0.1-0.7,0.1c-0.1,0.1-0.2,0.3-0.3,0.6
					c0,0.1,0,0.2,0,0.3c0,0.1,0,0.2,0,0.3c0,0.6,0,1.2-0.1,1.7c0,0.6,0,1.1,0,1.7c0,1.4,0,2.7,0,4c0,1.3,0,2.7,0,4V159.6z"/>
			</g>
		</g>
	</g>
	<g>
		<circle class="st117" cx="145.5" cy="235" r="4.9"/>
		<path class="st117" d="M156.8,202.3c0.4-0.7,0.7-1.4,0.9-2.2c0.3-1.1,0.4-2.2,0.4-3.3c0-1.1-0.3-2.2-0.7-3.3
			c-0.2-0.4-0.4-0.9-0.7-1.3c-0.3-0.4-0.6-0.8-0.9-1.1c-0.3-0.3-0.5-0.5-0.8-0.7c-0.3-0.2-0.6-0.3-1-0.3c-0.3-0.1-0.6-0.1-0.7,0.1
			c-0.2,0.1-0.3,0.3-0.3,0.6c0,0.1,0,0.2,0,0.3c0,0.1,0,0.2,0,0.3c0,0.6,0,1.2-0.1,1.8c0,0.6,0,1.2,0,1.8c0,1.4,0,2.7,0,4.1
			c0,1.4,0,2.7,0,4.1v1.8c0.2,0.1,0.4,0.2,0.5,0.1c0.2,0,0.3-0.1,0.5-0.1c0.7-0.3,1.2-0.6,1.8-1
			C156.1,203.4,156.5,202.9,156.8,202.3z"/>
		<path class="st117" d="M137.7,199.3c-0.4-2.4-0.9-4.8-1.4-7.1c-0.6,2.4-1.2,4.8-1.8,7.1c-0.6,2.4-1.2,4.8-1.8,7.2h6.2
			C138.6,204.1,138.2,201.7,137.7,199.3z"/>
		<path class="st117" d="M172.7,208.7c1.4-2.1,2.1-4.4,2-7c0-0.5-0.1-0.9-0.1-1.4c0-0.4-0.1-0.9-0.1-1.3c-0.4-2.6-1.4-4.9-3.1-6.9
			c-0.5-0.6-1-1-1.7-1.4c0,1.7-0.1,3.4-0.1,5.1c0,1.7,0,3.4,0,5.1c0,1.7,0,3.4,0,5.1c0,1.7-0.1,3.4-0.2,5.1c0,0,0.1,0,0.1,0
			c0,0,0.1,0,0.1,0c0.6-0.3,1.2-0.6,1.7-1C171.9,209.8,172.3,209.3,172.7,208.7z"/>
		<path class="st117" d="M377.7,142.8c-0.5-2-1.2-3.9-2.1-5.7c-1-1.9-2.2-3.6-3.6-5.3c-1.6-2-3.7-2.6-6.2-2.1
			c-0.9,0.2-1.7,0.4-2.6,0.7c-6.9,2.2-13.6,5-20.1,8.1c-6.1,2.9-11.9,6.1-17.4,10.1c-0.6,0.4-1.2,0.9-1.7,1.4
			c-1.1,1.1-1.3,2.1-0.7,3.5c0.2,0.4,0.4,0.8,0.6,1.3c-18.5,9-36.4,19.1-54.3,29.5c-0.5-3.9-1.9-7-6.1-8.3c0.3-0.2,0.5-0.3,0.6-0.4
			c1.6-1.4,3.1-2.8,4.7-4.2c4.7-4,9.5-7.9,14.3-11.9c2.4-2,4.7-4,7.1-6c0.3-0.2,0.5-0.5,1-0.4c1.7,0.5,3.2,0.1,4.7-0.7
			c1.7-0.9,3.3-1.8,4.9-2.9c7.7-5.3,15.1-11.1,22.3-17.2c1.5-1.3,2.8-2.7,3.8-4.4c1.2-2.1,1.3-4.2,0.3-6.3c-1.6-3.2-3.9-5.7-6.9-7.6
			c-2.2-1.4-4.5-1.5-6.9-0.3c-1.4,0.7-2.7,1.5-4,2.4c-4.5,3.3-9,6.6-13.5,9.9c-4,3-8.1,6-11.7,9.5c-0.8,0.8-1.5,1.5-2.2,2.4
			c-1.1,1.5-1.9,3.2-0.9,5.1c-0.5,0.4-0.9,0.8-1.3,1.1c-6,5-12,10-18,15c-6.2,5.1-12.4,10.2-18.5,15.4c-0.6,0.5-1.3,0.8-2.1,0.8
			c-1.1,0-2.2,0.1-3.2,0.2c-7.6,0.2-15.1,0.3-22.7,0.4c-10.3,0.1-20.5,0-30.8,0.1c-13.5,0.2-27,0.3-40.4-0.2
			c-6.2-0.2-12.4-0.3-18.6-0.3c-8.9-0.1-17.9-0.1-26.8,0.7c-2.6,0.2-5.1,0.6-7.6,1.2c-1.5,0.4-2.9,0.8-4.3,1.6
			c-1.6,0.9-2.5,2.3-2.5,4.1c0,0.9,0,1.8,0.2,2.7c0.6,3.3,1.8,6.4,3.2,9.4c2.8,6.1,6.1,12,9.3,17.9c4.1,7.4,8.1,14.8,12.2,22.3
			c0.2,0.3,0.3,0.6,0.5,1.1c-0.4-0.1-0.7-0.2-1-0.3c-5.8-1.8-11.8-1.9-17.8-1c-4.9,0.7-9.5,2.5-13.9,4.8c-6.3,3.3-11.3,8-15.2,13.9
			c-3.7,5.6-5.9,11.7-7.1,18.2c-0.8,4.6-0.9,9.2,0,13.8c1.1,5.8,3.5,11.2,6.8,16.1c6.2,9.2,14.8,15.2,25.2,18.7
			c4.4,1.5,8.9,1.9,13.5,1.2c3.5-0.5,6.9-1.6,10.1-2.9c4.4-1.8,8.6-4,12.3-7c3.7-3,6.6-6.6,9.1-10.6c3.8-6,6.3-12.5,7.2-19.6
			c0.3-2.5,0.4-5.1,0.5-7.7c0.1-2-0.1-3.9-0.5-5.9c-0.5-2.7-1.5-5.2-2.5-7.7c-0.1-0.3-0.2-0.6-0.4-1c12,0.3,23.7,0.6,35.5,1
			c0.1,0.2,0.2,0.4,0.4,0.6c5.3,9.5,11,18.7,17.4,27.5c2.9,4.1,6,8.1,9.3,11.9c3.9,4.4,8.1,8.6,12.8,12.1c4.3,3.2,9.1,5.4,14.5,5.8
			c4.5,0.4,8.2-1.3,10.8-4.9c1-1.3,1.8-2.9,2.5-4.4c1.6-3.6,2.6-7.5,3.5-11.3c1.9-8.9,2.6-18,3.1-27.1c0.2-4.1,0.3-8.1,0.4-12.2
			c0-0.4,0.1-0.8,0.1-1.1c1.2-0.3,2.4-0.5,3.5-0.8c2.5-0.7,4.5-2.2,5.7-4.5c0.6-1.2,1.2-2.4,1.6-3.6c0.7-2.1,1.4-4.3,1.9-6.5
			c3.4-13.4,6.2-26.8,8.8-40.4c0.2-1,0.6-1.5,1.4-2c12.6-6.6,25.1-13.3,37.7-19.9c7-3.7,14.1-7.2,20.8-11.4c0.5-0.3,1-0.5,1.5-0.8
			c0.6-0.3,1-0.3,1.5,0.2c1.5,1.2,3.3,1.6,5.2,0.9c0.4-0.1,0.7-0.2,1.1-0.4c3.6-1.2,7-2.8,10.4-4.3c7.4-3.3,14.8-6.5,21.9-10.4
			c2-1.1,3.9-2.2,5.7-3.5C377.7,148.2,378.5,145.8,377.7,142.8z M104.7,289.4c-1.8,1.5-3.8,2.6-6.1,3c-4.4,0.7-8.5-0.3-11.9-3.3
			c-3.4-3.1-5-6.9-4.7-11.4c0.6-8.3,7.3-14.1,14.6-14.2c1.6,0,3.1,0.3,4.6,0.9c-1.7,1.6-3.3,3.1-4.7,4.7c-1.9,2-3.7,4-5.4,6
			c-0.8,0.9-1.4,1.9-2,2.9c-0.5,0.9-0.7,1.8-0.6,2.8c0.2,2.1,1.8,3.5,4,3.6c1.5,0.1,2.8-0.2,4.1-1.1c1.2-0.8,2.3-1.6,3.3-2.5
			c2.9-2.6,5.7-5.4,8.5-8c0.3-0.2,0.5-0.5,0.8-0.8c0.7,1.4,1,2.9,1.1,4.3C110.6,281.6,108.9,286,104.7,289.4z M206.3,213.2
			c0.1-0.1,0.1-0.2,0.2-0.3c0.2-0.3,0.4-0.5,0.7-0.6c0.3-0.1,0.6-0.2,1-0.2c0-0.1,0-0.2,0-0.4s0-0.3,0-0.4c0-2.7,0.1-5.4,0.1-8
			c0-2.7,0-5.3,0.1-8c0-0.6,0-1.3,0-1.9c0-0.6,0-1.3,0-1.9c0-0.2,0-0.3,0-0.5c0-0.2,0-0.3,0-0.5c0-0.4-0.2-0.7-0.5-0.9
			c-0.1-0.1-0.2-0.2-0.3-0.2c-0.3-0.3-0.2-0.5,0.1-0.6c0.1-0.1,0.3-0.1,0.5-0.1h4.1c0.3,0,0.6,0,0.8,0.1c0.1,0,0.1,0.1,0.2,0.2
			c0.1,0.1,0.1,0.2,0.1,0.2c0,0.1,0,0.1-0.1,0.2c-0.1,0.1-0.1,0.1-0.2,0.2c-0.3,0.1-0.4,0.3-0.5,0.5c-0.1,0.2-0.1,0.4-0.1,0.6
			c0,0.5,0,0.9,0,1.4c0,0.4,0,0.9,0,1.4c0,2.9,0,5.9-0.1,8.8c0,2.9,0,5.8-0.1,8.8v1.4c0.4,0.1,0.7,0.1,1,0c0.3-0.1,0.5-0.2,0.7-0.5
			c0,0,0.1-0.1,0.1-0.1c0,0,0.1-0.1,0.1-0.1c0.1-0.1,0.2-0.1,0.3,0c0.1,0.1,0.1,0.2,0.1,0.3c-0.1,0.2-0.2,0.4-0.2,0.5
			c-0.3,0.5-0.6,0.8-1.1,0.9c-0.4,0.2-0.9,0.3-1.4,0.3c-0.3,0-0.5,0-0.8,0c-0.3,0-0.5-0.1-0.8-0.1c-0.2,0-0.4-0.1-0.6-0.1
			c-0.2,0-0.4-0.1-0.6-0.1c-0.8-0.2-1.6-0.1-2.4,0.3c-0.1,0-0.2,0.1-0.3,0.2c-0.1,0.1-0.2,0-0.3-0.1
			C206.2,213.4,206.2,213.3,206.3,213.2z M212.5,226.7c1.1-6.6,6-6.4,6.7,0.6c5.7-4.1,9.2-0.6,4.9,4.6c6.6,1.1,6.4,6-0.6,6.7
			c4.1,5.7,0.6,9.2-4.6,4.9c-1.1,6.6-6,6.4-6.7-0.6c-5.7,4.1-9.2,0.6-4.9-4.6c-6.6-1.1-6.4-6,0.6-6.7
			C203.7,226,207.3,222.5,212.5,226.7z M190.5,213.4c0.1-0.3,0.2-0.5,0.3-0.7c0.2-0.2,0.4-0.4,0.7-0.5c0.2,0,0.4-0.1,0.6-0.1
			c0.2,0,0.4-0.1,0.7-0.1V211c0-3.1,0-6.2,0.1-9.2c0-3.1,0-6.2,0.1-9.3c0-0.5-0.1-1-0.2-1.5c-0.1-0.5-0.4-0.9-0.8-1.3
			c-0.2-0.2-0.2-0.4-0.2-0.6c0.1-0.2,0.3-0.3,0.5-0.3c0.2,0,0.5-0.1,0.7-0.1c0.2,0,0.5,0,0.7,0c0.3,0,0.5,0,0.8,0c0.3,0,0.5,0,0.8,0
			c0.5,0,0.9,0.2,1.1,0.7c0.2,0.6,0.4,1.2,0.6,1.8c0.2,0.6,0.4,1.2,0.7,1.8c0.6,1.6,1.2,3.2,1.8,4.7c0.6,1.6,1.2,3.1,1.8,4.7
			c0.1,0.3,0.2,0.5,0.3,0.8c0.1,0.3,0.2,0.5,0.3,0.8c0.1,0,0.1,0,0.2,0v-1.4c0-1.4,0-2.8,0.1-4.3c0-1.4,0-2.8,0-4.3
			c0-0.5,0-1.1,0-1.6c0-0.5,0-1.1-0.1-1.6c0-0.3,0-0.5-0.1-0.8c-0.1-0.2-0.3-0.4-0.5-0.6c-0.2-0.1-0.3-0.2-0.3-0.4
			c0-0.1,0.1-0.1,0.2-0.2c0.1-0.1,0.2-0.1,0.3-0.1c0.4,0,0.8,0,1.2,0c0.4,0,0.8,0,1.2,0.1c0.3,0,0.5,0.1,0.5,0.2
			c0,0.1,0,0.3-0.3,0.5c-0.3,0.2-0.5,0.5-0.6,0.8c-0.1,0.3-0.1,0.6-0.1,0.9c0,2.3-0.1,4.6-0.1,6.9c0,2.3-0.1,4.6-0.1,6.9
			c0,1.2-0.1,2.4-0.1,3.6c0,1.2,0,2.4-0.1,3.6c0,0.5-0.2,0.9-0.6,0.9c-0.5,0.1-0.9,0-1.2-0.5c-0.1-0.1-0.1-0.2-0.2-0.4
			c-0.1-0.1-0.1-0.3-0.2-0.4c-0.5-1.4-1.1-2.8-1.6-4.1s-1-2.7-1.5-4.1c-0.5-1.5-1.1-3-1.5-4.5c-0.5-1.5-1-3-1.5-4.5l-0.3-0.8h-0.1
			c0,3.1-0.1,6.1-0.1,9.2c0,3,0,6.1-0.1,9.2c0.4,0.2,0.9,0.3,1.4,0.3c0.2,0,0.3,0,0.4-0.1c0.1-0.1,0.2-0.2,0.3-0.3
			c0.1-0.1,0.2-0.1,0.4-0.1c0.1,0.1,0.2,0.2,0.2,0.4c-0.1,0.3-0.2,0.6-0.5,0.8c-0.3,0.2-0.5,0.3-0.9,0.3c-0.3,0-0.5,0-0.8-0.1
			c-0.3,0-0.5-0.1-0.8-0.1c-0.2,0-0.4-0.1-0.6-0.1c-0.5-0.2-0.9-0.3-1.3-0.2c-0.4,0.1-0.8,0.3-1.1,0.6c-0.2,0.2-0.4,0.2-0.6,0.1
			c-0.1,0-0.1-0.1-0.1-0.2C190.5,213.5,190.5,213.5,190.5,213.4z M176.3,189c0-0.1,0.1-0.2,0.1-0.2c0.1,0,0.1-0.1,0.2-0.1
			c0.1,0,0.3,0,0.5,0l6.1,0.1h4.8c0.5,0,0.8,0.1,1,0.3c0.2,0.2,0.3,0.5,0.4,1c0,0.5,0,0.9,0,1.4c0,0.5-0.1,1-0.1,1.4
			c0,0.1,0,0.2,0,0.3c0,0.1,0,0.2-0.1,0.2c0,0.1-0.1,0.2-0.2,0.2c-0.1,0.1-0.2,0.1-0.4,0.1c-0.2,0-0.4-0.1-0.5-0.3
			c0-0.1-0.1-0.2-0.1-0.4c0-0.1,0-0.3-0.1-0.4c0-0.2-0.1-0.4-0.1-0.6c0-0.2-0.1-0.4-0.1-0.6c-0.1-0.5-0.4-0.8-0.8-0.9
			c-0.2,0-0.3-0.1-0.5-0.1c-0.2,0-0.3-0.1-0.5-0.1c-0.5,0-0.9,0-1.4,0c-0.5,0-0.9,0-1.4,0c-0.3,0-0.5,0.1-0.6,0.2
			c-0.1,0.1-0.2,0.3-0.2,0.6l-0.2,11.5v0.7c0.4,0.1,0.7,0.1,1-0.1c0.3-0.1,0.6-0.3,0.8-0.5c0.1-0.1,0.2-0.2,0.2-0.3
			c0.1-0.1,0.1-0.2,0.2-0.2c0.4-0.3,0.7-0.2,0.8,0.2c0.1,0.3,0.1,0.5,0.1,0.7c0,0.5-0.1,1.1-0.1,1.6c0,0.6-0.1,1.1-0.1,1.6
			c0,0.3-0.1,0.4-0.1,0.5c-0.1,0.1-0.1,0.1-0.2,0.1c0,0-0.1,0-0.2-0.1c-0.1,0-0.1-0.1-0.2-0.2c0-0.1-0.1-0.1-0.1-0.2
			c0-0.1-0.1-0.2-0.1-0.3c-0.1-0.3-0.2-0.6-0.3-0.8c-0.1-0.2-0.2-0.4-0.3-0.5s-0.3-0.2-0.5-0.2c-0.2,0-0.5-0.1-0.9-0.1
			c0,1.2-0.1,2.4-0.1,3.6c0,1.2,0,2.4,0,3.7c0.9,0.2,1.8,0.3,2.6,0.4c0.9,0,1.7-0.1,2.5-0.3c0.4-0.1,0.8-0.3,1.1-0.6
			c0.3-0.3,0.6-0.6,0.8-1c0.1-0.2,0.2-0.4,0.4-0.7c0,0,0.1-0.1,0.2-0.1c0.1,0,0.2,0,0.2,0c0.2,0,0.3,0.2,0.3,0.3
			c0,0.2,0,0.5-0.1,0.8c-0.1,0.5-0.4,0.9-0.7,1.3c-0.3,0.4-0.7,0.7-1.2,0.8c-0.6,0.2-1.1,0.4-1.8,0.5c-1.1,0.2-2.1,0.3-3.1,0.2
			c-1-0.1-2.1-0.2-3.1-0.4c-0.3,0-0.6-0.1-0.9-0.1c-0.3,0-0.6,0-0.9-0.1c-0.6,0-1.2,0.1-1.7,0.5c-0.1,0.1-0.2,0.2-0.4,0.2
			c-0.2,0-0.3,0-0.4-0.1c0,0,0-0.1,0-0.1c0-0.1,0-0.1,0-0.2c0.2-0.4,0.5-0.7,0.9-0.9c0.2-0.1,0.4-0.1,0.5-0.2c0.2,0,0.3-0.1,0.5-0.1
			c0-0.6,0-1.3,0.1-1.9c0-0.6,0-1.2,0.1-1.8c0-2.3,0-4.5,0.1-6.8c0-2.3,0-4.5,0.1-6.8c0-0.5,0-1.1,0-1.6c0-0.5,0-1-0.1-1.6
			c0-0.1,0-0.2,0-0.4c0-0.1,0-0.2-0.1-0.4c-0.1-0.6-0.5-1-1.1-1.2c-0.2,0-0.4-0.1-0.5-0.2c-0.1,0-0.1-0.1-0.2-0.2
			S176.2,189.1,176.3,189z M126.6,206.4c-0.1,0-0.2,0-0.3-0.1c0,0.3-0.1,0.7-0.1,1c0,0.3-0.1,0.7-0.1,1c-0.1,0.9-0.4,1.8-0.8,2.5
			c-0.5,0.7-1.1,1.3-1.8,1.9c-0.6,0.4-1.2,0.7-1.9,0.8c-0.7,0.1-1.3,0.1-2,0c-1.8-0.2-3.3-1.1-4.4-2.6c-1.4-1.8-2.2-4-2.4-6.4
			c-0.2-1.5-0.2-3.1-0.1-4.6c0.1-1.5,0.4-3,0.8-4.4c0.2-0.8,0.5-1.7,0.9-2.4c0.4-0.8,0.8-1.5,1.3-2.2c1.2-1.6,2.8-2.3,4.8-2.1
			c1.2,0.1,2.3,0.4,3.3,1c0.2,0.1,0.4,0.2,0.5,0.1c0.1,0,0.3-0.1,0.4-0.3c0.1,0,0.1-0.1,0.2-0.2c0-0.1,0.1-0.1,0.1-0.2
			c0-0.1,0.1-0.1,0.1-0.2c0-0.1,0.1-0.1,0.1-0.2c0.3-0.3,0.5-0.4,0.8-0.3c0.3,0.1,0.4,0.3,0.5,0.7c0.1,0.5,0.1,0.9,0,1.4
			c-0.2,1-0.3,2.1-0.1,3.2c0,0.2,0,0.4,0,0.6c0,0.2,0,0.4-0.1,0.6c0,0.3-0.2,0.5-0.5,0.6c-0.2,0-0.3,0-0.4,0
			c-0.1-0.1-0.2-0.2-0.3-0.3c-0.1-0.1-0.2-0.3-0.3-0.4c-0.1-0.1-0.2-0.3-0.2-0.5c-0.1-0.3-0.3-0.6-0.4-0.9c-0.1-0.3-0.2-0.6-0.4-0.9
			c-0.2-0.4-0.4-0.7-0.6-1.1c-0.2-0.3-0.5-0.5-0.9-0.7c-1-0.5-1.9-0.4-2.7,0.2c-0.3,0.2-0.5,0.5-0.7,0.7c-0.2,0.2-0.4,0.5-0.5,0.9
			c-0.8,1.7-1.2,3.4-1.3,5.1c-0.1,1.7-0.1,3.4-0.1,5.1c0,1.7,0.2,3.4,0.4,5.1c0,0.3,0.1,0.6,0.2,1c0.1,0.3,0.2,0.6,0.3,0.9
			c0.3,0.7,0.8,1.3,1.6,1.8c0.3,0.2,0.6,0.2,0.9,0.2c0.3,0,0.7-0.1,1-0.2c0.3-0.1,0.6-0.3,0.8-0.6c0.2-0.3,0.4-0.6,0.4-0.9
			c0.1-0.8,0.2-1.5,0.2-2.3c0-0.8,0-1.5-0.1-2.3c-0.7,0-1.3,0.1-1.8,0.4c-0.5,0.3-1,0.7-1.4,1.2c-0.1,0.2-0.3,0.2-0.3,0.2
			c-0.1,0-0.2,0-0.2-0.1c0-0.1,0-0.2,0-0.4c0-0.2,0.1-0.3,0.1-0.5s0.2-0.3,0.3-0.5c0.1-0.2,0.2-0.3,0.4-0.5c0.6-0.7,1.1-1.2,1.8-1.4
			c0.6-0.2,1.3-0.2,2.2,0.1c0.3,0.1,0.6,0.2,0.8,0.3c0.3,0.1,0.5,0.3,0.8,0.4c0.3,0.1,0.5,0.2,0.7,0.4c0.2,0.1,0.5,0.2,0.7,0.3
			c0.3,0.1,0.6,0.2,0.9,0.1c0.3,0,0.6-0.2,0.8-0.5c0.2-0.2,0.4-0.2,0.5-0.1c0,0,0.1,0.1,0.2,0.2c0.1,0.1,0.1,0.2,0,0.3
			c-0.1,0.2-0.2,0.4-0.4,0.6c-0.3,0.2-0.5,0.3-0.8,0.4c-0.3,0.1-0.6,0.1-0.9,0.1C126.8,206.5,126.7,206.4,126.6,206.4z M130.9,213.7
			c-0.3,0-0.6-0.1-0.9-0.3c-0.3-0.1-0.6-0.2-0.9-0.2c-0.3,0-0.6,0.1-0.9,0.3c0,0,0,0-0.1,0c0,0,0,0-0.1,0c-0.1,0-0.2,0-0.2,0
			c-0.1-0.1-0.1-0.1-0.1-0.2c0-0.8,0.8-1.2,2.3-1.2c0.1-0.5,0.2-1.1,0.4-1.6c0.1-0.5,0.2-1.1,0.4-1.6c0.6-2.5,1.2-5.1,1.8-7.6
			c0.6-2.5,1.2-5,1.8-7.5c0.1-0.5,0.2-0.9,0.4-1.4c0.1-0.4,0.3-0.9,0.4-1.3c0-0.1,0.1-0.2,0.1-0.4c0-0.1,0-0.3,0.1-0.4
			c0.1-0.4-0.1-0.7-0.5-0.9c-0.1,0-0.2-0.1-0.3-0.2c-0.1-0.1-0.2-0.2-0.1-0.4c0-0.2,0.1-0.3,0.3-0.3c0.1,0,0.3-0.1,0.4-0.1
			c0.6,0,1.2-0.1,1.8-0.1c0.6,0,1.2-0.1,1.8-0.1c0.2,0,0.5,0,0.7,0c0.2,0,0.4,0,0.7,0.1c0.1,0,0.2,0,0.3,0s0.2,0,0.2,0
			c0.4,0,0.6,0.1,0.7,0.2c0,0.1,0,0.3-0.2,0.6c-0.1,0.2-0.2,0.4-0.2,0.5c0,0.2,0,0.4,0,0.5c0.1,1.1,0.2,2.3,0.4,3.4
			c0.2,1.1,0.4,2.2,0.6,3.3c0.4,1.9,0.8,3.8,1.1,5.7c0.3,1.9,0.6,3.8,0.9,5.7c0.1,0.6,0.2,1.2,0.3,1.8c0.1,0.6,0.2,1.2,0.4,1.8
			c0.2,0,0.3,0,0.5-0.1c0.1-0.1,0.3-0.2,0.4-0.3c0.1-0.1,0.3-0.2,0.4-0.1c0.1,0,0.2,0.1,0.2,0.3c0.1,0.4-0.1,0.7-0.4,1
			c-0.3,0.2-0.7,0.4-1,0.4c-0.4,0.1-0.7,0.1-1.1,0c-0.3,0-0.6-0.1-0.8-0.1c-0.3,0-0.6,0-0.8-0.1c-0.4,0-0.8,0-1.1,0
			c-0.4,0-0.7,0.1-1.1,0.4c0,0-0.1,0-0.2,0.1c-0.1,0-0.2,0-0.2,0c-0.3,0-0.3-0.2-0.1-0.5c0.2-0.4,0.6-0.7,1.2-1
			c-0.1-0.7-0.2-1.3-0.3-2c-0.1-0.7-0.2-1.3-0.3-2c-1.1,0-2.2-0.1-3.4-0.1c-1.1,0-2.3,0-3.4,0c-0.2,0.7-0.3,1.4-0.5,2.2
			c-0.2,0.7-0.3,1.4-0.5,2.2c0.6,0.2,1,0.1,1.4-0.2v0c0.1-0.1,0.2-0.1,0.4-0.1c0.1,0.1,0.2,0.2,0.2,0.3h0c0,0.7-0.2,1.1-0.9,1.2
			c-0.3,0-0.5,0.1-0.8,0.1C131.5,213.7,131.2,213.7,130.9,213.7z M153.3,238.6c4.1,5.7,0.6,9.2-4.6,4.9c-1.1,6.6-6,6.4-6.7-0.6
			c-5.7,4.1-9.2,0.6-4.9-4.6c-6.6-1.1-6.4-6,0.6-6.7c-4.1-5.7-0.6-9.2,4.6-4.9c1.1-6.6,6-6.4,6.7,0.6c5.7-4.1,9.2-0.6,4.9,4.6
			C160.6,233,160.3,238,153.3,238.6z M160.7,211.7c-0.2,0.7-0.6,1.2-1.2,1.5c-0.6,0.3-1.2,0.3-1.9,0.1c-0.5-0.2-0.9-0.4-1.2-0.7
			c-0.3-0.3-0.6-0.7-0.8-1.1c-0.1-0.4-0.3-0.7-0.4-1.1c-0.1-0.4-0.2-0.7-0.4-1.1c-0.1-0.3-0.2-0.6-0.3-0.9c-0.1-0.3-0.2-0.6-0.4-0.9
			c-0.2-0.6-0.7-0.9-1.5-0.9v5.7c0.3,0,0.5,0,0.7-0.1c0.2-0.1,0.4-0.3,0.5-0.5c0,0,0.1-0.1,0.1-0.1c0,0,0.1-0.1,0.1-0.1
			c0,0,0.1-0.1,0.2-0.1c0.1,0,0.1,0,0.2,0c0.1,0,0.2,0.1,0.2,0.3c0,0.2,0,0.4-0.1,0.6c-0.2,0.5-0.6,0.9-1,1.2
			c-0.4,0.3-1,0.4-1.6,0.3c-0.3,0-0.6-0.1-1-0.2c-0.3-0.1-0.6-0.1-1-0.2c-0.4-0.1-0.8-0.1-1.2-0.1c-0.4,0-0.8,0.2-1.1,0.5
			c-0.2,0.2-0.4,0.2-0.6,0.1c-0.2-0.2-0.2-0.4-0.1-0.6c0.2-0.5,0.5-0.8,1.1-1c0.1,0,0.2,0,0.4-0.1c0.1,0,0.3,0,0.4-0.1v-1.1
			c0-2.9-0.1-5.8-0.1-8.6c0-2.8-0.1-5.7-0.1-8.6v-2.3c0-0.7-0.2-1.4-0.7-1.8c-0.3-0.2-0.4-0.4-0.3-0.6c0.1-0.2,0.2-0.3,0.5-0.4
			c0.3-0.1,0.7-0.1,1-0.1c0.5,0,0.9,0,1.4,0c0.5,0,0.9,0,1.4,0c1.6,0,3,0.5,4.1,1.3c1.1,0.8,2,2,2.5,3.5c0.5,1.5,0.8,2.9,0.6,4.4
			c-0.1,1.5-0.5,2.9-1.1,4.3c-0.6,1.3-1.4,2.2-2.6,2.9c-0.1,0-0.2,0.1-0.3,0.2c-0.1,0.1-0.2,0.1-0.3,0.2c0.6,0.3,1,0.7,1.3,1.2
			c0.3,0.5,0.5,1,0.7,1.6c0.1,0.4,0.2,0.7,0.3,1.1c0.1,0.4,0.2,0.7,0.3,1.1c0.1,0.3,0.2,0.6,0.4,0.8c0.2,0.3,0.5,0.4,0.9,0.4
			c0.3,0,0.6-0.2,0.8-0.5c0-0.1,0.1-0.2,0.1-0.3c0-0.1,0.1-0.2,0.1-0.2c0-0.1,0.1-0.1,0.2-0.2c0.1-0.1,0.2-0.1,0.2-0.1
			c0.1,0,0.1,0.1,0.2,0.1c0.1,0.1,0.1,0.1,0.1,0.2c0,0.2,0,0.4,0,0.6C160.8,211.4,160.8,211.6,160.7,211.7z M165.6,213.3
			c-0.1,0-0.2,0-0.4-0.1c-0.1,0-0.3,0-0.4-0.1c-0.6-0.2-1.2,0-1.6,0.5c-0.1,0.1-0.2,0.2-0.4,0.2c-0.1,0-0.2,0-0.3,0
			c-0.1,0-0.2-0.1-0.1-0.2c0-0.1,0.1-0.2,0.1-0.3c0.2-0.3,0.4-0.5,0.6-0.7c0.3-0.2,0.5-0.3,0.9-0.4c0.2,0,0.4-0.1,0.6-0.1
			c0.2,0,0.4-0.1,0.6-0.1c0,0,0-0.1,0-0.2c0-0.1,0-0.1,0-0.2c0-2.8,0-5.6,0.1-8.5c0-2.8,0-5.6,0-8.5c0-0.6,0-1.2,0-1.7
			c0-0.6,0-1.1,0-1.7c0-0.4-0.1-0.7-0.2-1c-0.1-0.3-0.4-0.5-0.7-0.7c-0.1,0-0.2-0.1-0.2-0.2c-0.1-0.1-0.1-0.1-0.1-0.3
			c0-0.1,0.1-0.2,0.2-0.3c0.1,0,0.2-0.1,0.3-0.1c0.7-0.1,1.5-0.2,2.2-0.2c0.7,0,1.4,0.1,2.2,0.2c0.4,0.1,0.8,0.2,1.2,0.4
			c0.4,0.2,0.7,0.4,1.1,0.6c1,0.6,1.7,1.4,2.3,2.3c0.6,0.9,1.1,1.9,1.5,2.9c0.4,1.2,0.7,2.3,0.9,3.5c0.2,1.2,0.3,2.4,0.3,3.7
			c0,0.9-0.2,1.7-0.4,2.5c-0.2,0.8-0.5,1.6-0.8,2.4l-0.8,1.7c-0.4,0.9-1,1.6-1.6,2.2c-0.7,0.6-1.4,1.2-2.3,1.6
			C168.7,213.5,167.2,213.7,165.6,213.3z M183.7,243.6c-1.1,6.6-6,6.4-6.7-0.6c-5.7,4.1-9.2,0.6-4.9-4.6c-6.6-1.1-6.4-6,0.6-6.7
			c-4.1-5.7-0.6-9.2,4.6-4.9c1.1-6.6,6-6.4,6.7,0.6c5.7-4.1,9.2-0.6,4.9,4.6c6.6,1.1,6.4,6-0.6,6.7
			C192.5,244.3,188.9,247.8,183.7,243.6z M230.1,260.5c-0.3,4.5-0.5,9.1-0.8,13.6c-0.3,4.8-0.6,9.5-0.9,14.3c-0.2,2.8-0.4,5.7-1,8.5
			c-0.1,0.5-0.2,1.1-0.4,1.6c-0.6,1.6-1.5,2.1-3.2,1.5c-0.9-0.3-1.8-0.7-2.5-1.3c-1.1-0.8-2.2-1.6-3.1-2.6c-2.8-2.6-5.2-5.6-7.5-8.6
			c-4.5-5.9-9-11.9-13.5-17.8c-2-2.6-3.9-5.3-5.8-7.9c-0.2-0.3-0.4-0.6-0.6-1c13.3-0.2,26.4-0.5,39.6-1.3
			C230.1,259.7,230.1,260.1,230.1,260.5z M230.3,189.5c-0.3,0.2-0.5,0.5-0.6,0.8c-0.1,0.3-0.1,0.6-0.1,0.9c0,2.3-0.1,4.6-0.1,6.9
			s-0.1,4.6-0.1,6.9c0,1.2-0.1,2.4-0.1,3.6c0,1.2,0,2.4-0.1,3.6c0,0.5-0.2,0.9-0.6,0.9c-0.5,0.1-0.9,0-1.2-0.5
			c-0.1-0.1-0.1-0.2-0.2-0.4c-0.1-0.1-0.1-0.3-0.2-0.4c-0.5-1.4-1.1-2.8-1.6-4.1s-1-2.7-1.5-4.1c-0.5-1.5-1.1-3-1.5-4.5
			c-0.5-1.5-1-3-1.5-4.5l-0.3-0.8h-0.1c0,3.1-0.1,6.1-0.1,9.2c0,3,0,6.1-0.1,9.2c0.4,0.2,0.9,0.3,1.4,0.3c0.2,0,0.3,0,0.4-0.1
			c0.1-0.1,0.2-0.2,0.3-0.3c0.1-0.1,0.2-0.1,0.4-0.1c0.1,0.1,0.2,0.2,0.2,0.4c-0.1,0.3-0.2,0.6-0.5,0.8c-0.3,0.2-0.5,0.3-0.9,0.3
			c-0.3,0-0.5,0-0.8-0.1c-0.3,0-0.5-0.1-0.8-0.1c-0.2,0-0.4-0.1-0.6-0.1c-0.5-0.2-0.9-0.3-1.3-0.2c-0.4,0.1-0.8,0.3-1.1,0.6
			c-0.2,0.2-0.4,0.2-0.6,0.1c-0.1,0-0.1-0.1-0.1-0.2c0-0.1,0-0.1,0-0.2c0.1-0.3,0.2-0.5,0.3-0.7c0.2-0.2,0.4-0.4,0.7-0.5
			c0.2,0,0.4-0.1,0.6-0.1c0.2,0,0.4-0.1,0.7-0.1V211c0-3.1,0-6.2,0.1-9.2c0-3.1,0-6.2,0.1-9.3c0-0.5-0.1-1-0.2-1.5
			c-0.1-0.5-0.4-0.9-0.8-1.3c-0.2-0.2-0.2-0.4-0.2-0.6c0.1-0.2,0.3-0.3,0.5-0.3c0.2,0,0.5-0.1,0.7-0.1s0.5,0,0.7,0
			c0.3,0,0.5,0,0.8,0c0.3,0,0.5,0,0.8,0c0.5,0,0.9,0.2,1.1,0.7c0.2,0.6,0.4,1.2,0.6,1.8c0.2,0.6,0.4,1.2,0.7,1.8
			c0.6,1.6,1.2,3.2,1.8,4.7c0.6,1.6,1.2,3.1,1.8,4.7c0.1,0.3,0.2,0.5,0.3,0.8c0.1,0.3,0.2,0.5,0.3,0.8c0.1,0,0.1,0,0.2,0v-1.4
			c0-1.4,0-2.8,0.1-4.3c0-1.4,0-2.8,0-4.3c0-0.5,0-1.1,0-1.6c0-0.5,0-1.1-0.1-1.6c0-0.3,0-0.5-0.1-0.8c-0.1-0.2-0.3-0.4-0.5-0.6
			c-0.2-0.1-0.3-0.2-0.3-0.4c0-0.1,0.1-0.1,0.2-0.2c0.1-0.1,0.2-0.1,0.3-0.1c0.4,0,0.8,0,1.2,0c0.4,0,0.8,0,1.2,0.1
			c0.3,0,0.5,0.1,0.5,0.2C230.6,189.2,230.5,189.3,230.3,189.5z M248.8,205.4c-0.1,0.2-0.2,0.4-0.4,0.6c-0.3,0.2-0.5,0.3-0.8,0.4
			c-0.3,0.1-0.6,0.1-0.9,0.1c-0.1,0-0.2,0-0.3,0c-0.1,0-0.2,0-0.3-0.1c0,0.3-0.1,0.7-0.1,1c0,0.3-0.1,0.7-0.1,1
			c-0.1,0.9-0.4,1.8-0.8,2.5c-0.5,0.7-1.1,1.3-1.8,1.9c-0.6,0.4-1.2,0.7-1.9,0.8c-0.7,0.1-1.3,0.1-2,0c-1.8-0.2-3.3-1.1-4.4-2.6
			c-1.4-1.8-2.2-4-2.4-6.4c-0.2-1.5-0.2-3.1-0.1-4.6c0.1-1.5,0.4-3,0.8-4.4c0.2-0.8,0.5-1.7,0.9-2.4c0.4-0.8,0.8-1.5,1.3-2.2
			c1.2-1.6,2.8-2.3,4.8-2.1c1.2,0.1,2.3,0.4,3.3,1c0.2,0.1,0.4,0.2,0.5,0.1c0.1,0,0.3-0.1,0.4-0.3c0.1,0,0.1-0.1,0.2-0.2
			c0-0.1,0.1-0.1,0.1-0.2c0-0.1,0.1-0.1,0.1-0.2c0-0.1,0.1-0.1,0.1-0.2c0.3-0.3,0.5-0.4,0.8-0.3c0.3,0.1,0.4,0.3,0.5,0.7
			c0.1,0.5,0.1,0.9,0,1.4c-0.2,1-0.3,2.1-0.1,3.2c0,0.2,0,0.4,0,0.6c0,0.2,0,0.4-0.1,0.6c0,0.3-0.2,0.5-0.5,0.6c-0.2,0-0.3,0-0.4,0
			c-0.1-0.1-0.2-0.2-0.3-0.3c-0.1-0.1-0.2-0.3-0.3-0.4c-0.1-0.1-0.2-0.3-0.2-0.5c-0.1-0.3-0.3-0.6-0.4-0.9c-0.1-0.3-0.2-0.6-0.4-0.9
			c-0.2-0.4-0.4-0.7-0.6-1.1c-0.2-0.3-0.5-0.5-0.9-0.7c-1-0.5-1.9-0.4-2.7,0.2c-0.3,0.2-0.5,0.5-0.7,0.7c-0.2,0.2-0.4,0.5-0.5,0.9
			c-0.8,1.7-1.2,3.4-1.3,5.1c-0.1,1.7-0.1,3.4-0.1,5.1c0,1.7,0.2,3.4,0.4,5.1c0,0.3,0.1,0.6,0.2,1c0.1,0.3,0.2,0.6,0.3,0.9
			c0.3,0.7,0.8,1.3,1.6,1.8c0.3,0.2,0.6,0.2,0.9,0.2c0.4,0,0.7-0.1,1-0.2c0.3-0.1,0.6-0.3,0.8-0.6c0.2-0.3,0.4-0.6,0.4-0.9
			c0.1-0.8,0.2-1.5,0.2-2.3c0-0.8,0-1.5-0.1-2.3c-0.7,0-1.3,0.1-1.8,0.4c-0.5,0.3-1,0.7-1.4,1.2c-0.1,0.2-0.3,0.2-0.4,0.2
			c-0.1,0-0.2,0-0.2-0.1c0-0.1,0-0.2,0-0.4c0-0.2,0.1-0.3,0.1-0.5c0.1-0.2,0.2-0.3,0.3-0.5c0.1-0.2,0.2-0.3,0.4-0.5
			c0.6-0.7,1.1-1.2,1.8-1.4c0.6-0.2,1.3-0.2,2.2,0.1c0.3,0.1,0.6,0.2,0.8,0.3c0.3,0.1,0.5,0.3,0.8,0.4c0.3,0.1,0.5,0.2,0.7,0.4
			c0.2,0.1,0.5,0.2,0.7,0.3c0.3,0.1,0.6,0.2,0.9,0.1c0.3,0,0.6-0.2,0.8-0.5c0.2-0.2,0.4-0.2,0.5-0.1c0,0,0.1,0.1,0.2,0.2
			C248.8,205.2,248.8,205.3,248.8,205.4z"/>
		<circle class="st117" cx="215.7" cy="235" r="4.9"/>
		<circle class="st117" cx="180.5" cy="235" r="4.9"/>
	</g>
</g>
</svg>
